# xmcd
#
# Track frame offsets:
#       150
#       15862
#       27290
#       41650
#       58990
#       72772
#       84582
#       97365
#       117587
#       130482
#       156925
#       170905
#       182320
#       198675
#       210187
#       228667
#       247972
#       260992
#
# Disc length: 3742 seconds
#
# Revision: 0
# Processed by: cddbd v1.5.1PL0 Copyright (c) Steve Scherf et al.
# Submitted via: CD-DA_X-Tractor v0.24
#
DISCID=090e9c12
DTITLE=Cornelis Vreeswijk - Spotlight
DYEAR=1992
DGENRE=Blues
TTITLE0=Turistens klagan
TTITLE1=Ballad om olika segelytor
TTITLE2=Vildhallon
TTITLE3=Den ståndaktige gossens jenkka
TTITLE4=Balladen om den nya äktenskapslagen
TTITLE5=Konstas fina vals
TTITLE6=Ballad till en bra polis
TTITLE7=Kalle Tappinens samba
TTITLE8=Möte med Fredrik Åkare, Stocholm 1943
TTITLE9=Ballad om Don Quixotes förvillelser
TTITLE10=Luffaren och katten
TTITLE11=Mannen som älskade träd (no 1)
TTITLE12=Skyddsrums boogie
TTITLE13=Goddag yxskaft blues
TTITLE14=Blues för Dubrovnik
TTITLE15=Sång om Coyote och varför han bara sjunger om natten
TTITLE16=Felicia adjö
TTITLE17=Den blåa drömmen
EXTD=
EXTT0=
EXTT1=
EXTT2=
EXTT3=
EXTT4=
EXTT5=
EXTT6=
EXTT7=
EXTT8=
EXTT9=
EXTT10=
EXTT11=
EXTT12=
EXTT13=
EXTT14=
EXTT15=
EXTT16=
EXTT17=
PLAYORDER=
